<mxfile host="Electron" agent="Mozilla/5.0 (Windows NT 10.0; Win64; x64) AppleWebKit/537.36 (KHTML, like Gecko) draw.io/26.2.2 Chrome/134.0.6998.178 Electron/35.1.2 Safari/537.36" version="26.2.2">
  <diagram id="C5RBs43oDa-KdzZeNtuy" name="Page-1">
    <mxGraphModel dx="2255" dy="2058" grid="1" gridSize="10" guides="1" tooltips="1" connect="1" arrows="1" fold="1" page="1" pageScale="1" pageWidth="827" pageHeight="1169" math="0" shadow="0">
      <root>
        <mxCell id="WIyWlLk6GJQsqaUBKTNV-0" />
        <mxCell id="WIyWlLk6GJQsqaUBKTNV-1" parent="WIyWlLk6GJQsqaUBKTNV-0" />
        <mxCell id="WIyWlLk6GJQsqaUBKTNV-3" value="Diagram for Docker Image size optimization" style="rounded=1;whiteSpace=wrap;html=1;fontSize=12;glass=0;strokeWidth=1;shadow=0;" parent="WIyWlLk6GJQsqaUBKTNV-1" vertex="1">
          <mxGeometry x="340" y="-90" width="330" height="40" as="geometry" />
        </mxCell>
        <mxCell id="MsraNqGPP_kelZlvkzCJ-0" value="Data Acquisition Pipeline Bundle&lt;div&gt;&lt;br&gt;&lt;/div&gt;&lt;div&gt;- Real electrical consumption data&lt;/div&gt;&lt;div&gt;- Temperature prediction data&lt;/div&gt;" style="rounded=0;whiteSpace=wrap;html=1;" vertex="1" parent="WIyWlLk6GJQsqaUBKTNV-1">
          <mxGeometry x="340" y="-200" width="390" height="90" as="geometry" />
        </mxCell>
        <mxCell id="MsraNqGPP_kelZlvkzCJ-4" value="" style="edgeStyle=orthogonalEdgeStyle;rounded=0;orthogonalLoop=1;jettySize=auto;html=1;" edge="1" parent="WIyWlLk6GJQsqaUBKTNV-1" source="MsraNqGPP_kelZlvkzCJ-2" target="MsraNqGPP_kelZlvkzCJ-3">
          <mxGeometry relative="1" as="geometry" />
        </mxCell>
        <mxCell id="MsraNqGPP_kelZlvkzCJ-7" value="" style="edgeStyle=orthogonalEdgeStyle;rounded=0;orthogonalLoop=1;jettySize=auto;html=1;" edge="1" parent="WIyWlLk6GJQsqaUBKTNV-1" source="MsraNqGPP_kelZlvkzCJ-2" target="MsraNqGPP_kelZlvkzCJ-6">
          <mxGeometry relative="1" as="geometry" />
        </mxCell>
        <mxCell id="MsraNqGPP_kelZlvkzCJ-32" value="" style="edgeStyle=orthogonalEdgeStyle;rounded=0;orthogonalLoop=1;jettySize=auto;html=1;" edge="1" parent="WIyWlLk6GJQsqaUBKTNV-1" source="MsraNqGPP_kelZlvkzCJ-2" target="MsraNqGPP_kelZlvkzCJ-30">
          <mxGeometry relative="1" as="geometry" />
        </mxCell>
        <mxCell id="MsraNqGPP_kelZlvkzCJ-2" value="&lt;b&gt;update_consumption_data.py&lt;/b&gt;&lt;div&gt;&lt;br&gt;&lt;div&gt;- loops through regions&lt;/div&gt;&lt;/div&gt;&lt;div&gt;&lt;br&gt;&lt;/div&gt;&lt;div&gt;&lt;b&gt;&lt;font style=&quot;color: rgb(255, 153, 153);&quot;&gt;deps&lt;/font&gt;&lt;/b&gt; : pandas&lt;/div&gt;" style="rounded=1;whiteSpace=wrap;html=1;fontSize=12;glass=0;strokeWidth=1;shadow=0;fillColor=#2C80FF;" vertex="1" parent="WIyWlLk6GJQsqaUBKTNV-1">
          <mxGeometry x="200" y="150" width="190" height="100" as="geometry" />
        </mxCell>
        <mxCell id="MsraNqGPP_kelZlvkzCJ-3" value="&lt;div&gt;&lt;span style=&quot;background-color: transparent; color: light-dark(rgb(0, 0, 0), rgb(255, 255, 255));&quot;&gt;&lt;b&gt;get_consumption_data.py&lt;/b&gt;&lt;/span&gt;&lt;/div&gt;&lt;div&gt;&lt;span style=&quot;background-color: transparent; color: light-dark(rgb(0, 0, 0), rgb(255, 255, 255));&quot;&gt;&lt;br&gt;&lt;/span&gt;&lt;/div&gt;&lt;div&gt;&lt;span style=&quot;background-color: transparent; color: light-dark(rgb(0, 0, 0), rgb(255, 255, 255));&quot;&gt;&lt;br&gt;&lt;/span&gt;&lt;/div&gt;&lt;div&gt;&lt;span style=&quot;background-color: transparent; color: light-dark(rgb(0, 0, 0), rgb(255, 255, 255));&quot;&gt;&lt;br&gt;&lt;/span&gt;&lt;/div&gt;&lt;div&gt;&lt;span style=&quot;background-color: transparent; color: light-dark(rgb(0, 0, 0), rgb(255, 255, 255));&quot;&gt;&lt;br&gt;&lt;/span&gt;&lt;/div&gt;&lt;div&gt;&lt;br&gt;&lt;/div&gt;&lt;div&gt;&lt;br&gt;&lt;/div&gt;&lt;div&gt;&lt;br&gt;&lt;/div&gt;&lt;div&gt;&lt;font style=&quot;color: rgb(255, 153, 153);&quot;&gt;&lt;b style=&quot;&quot;&gt;deps&lt;/b&gt;&lt;/font&gt; : pandas, requests&lt;/div&gt;" style="rounded=1;whiteSpace=wrap;html=1;fontSize=12;glass=0;strokeWidth=1;shadow=0;fillColor=#2C80FF;" vertex="1" parent="WIyWlLk6GJQsqaUBKTNV-1">
          <mxGeometry x="200" y="310" width="190" height="150" as="geometry" />
        </mxCell>
        <mxCell id="MsraNqGPP_kelZlvkzCJ-6" value="all_cons_data.csv" style="shape=cylinder3;whiteSpace=wrap;html=1;boundedLbl=1;backgroundOutline=1;size=15;fillColor=#4C0099;" vertex="1" parent="WIyWlLk6GJQsqaUBKTNV-1">
          <mxGeometry x="-10" y="170" width="120" height="80" as="geometry" />
        </mxCell>
        <mxCell id="MsraNqGPP_kelZlvkzCJ-9" value="eco2-mix-regional-tr API" style="ellipse;shape=cloud;whiteSpace=wrap;html=1;fillColor=#009900;" vertex="1" parent="WIyWlLk6GJQsqaUBKTNV-1">
          <mxGeometry x="-100" y="305" width="210" height="110" as="geometry" />
        </mxCell>
        <mxCell id="MsraNqGPP_kelZlvkzCJ-12" value="writes to" style="text;html=1;align=center;verticalAlign=middle;resizable=0;points=[];autosize=1;strokeColor=none;fillColor=none;" vertex="1" parent="WIyWlLk6GJQsqaUBKTNV-1">
          <mxGeometry x="120" y="180" width="70" height="30" as="geometry" />
        </mxCell>
        <mxCell id="MsraNqGPP_kelZlvkzCJ-13" value="calls" style="text;html=1;align=center;verticalAlign=middle;resizable=0;points=[];autosize=1;strokeColor=none;fillColor=none;" vertex="1" parent="WIyWlLk6GJQsqaUBKTNV-1">
          <mxGeometry x="240" y="260" width="50" height="30" as="geometry" />
        </mxCell>
        <mxCell id="MsraNqGPP_kelZlvkzCJ-15" value="calls" style="text;html=1;align=center;verticalAlign=middle;resizable=0;points=[];autosize=1;strokeColor=none;fillColor=none;" vertex="1" parent="WIyWlLk6GJQsqaUBKTNV-1">
          <mxGeometry x="130" y="320" width="50" height="30" as="geometry" />
        </mxCell>
        <mxCell id="MsraNqGPP_kelZlvkzCJ-17" value="uses" style="text;html=1;align=center;verticalAlign=middle;resizable=0;points=[];autosize=1;strokeColor=none;fillColor=none;" vertex="1" parent="WIyWlLk6GJQsqaUBKTNV-1">
          <mxGeometry x="280" y="90" width="50" height="30" as="geometry" />
        </mxCell>
        <mxCell id="MsraNqGPP_kelZlvkzCJ-26" value="" style="edgeStyle=orthogonalEdgeStyle;rounded=0;orthogonalLoop=1;jettySize=auto;html=1;" edge="1" parent="WIyWlLk6GJQsqaUBKTNV-1" source="MsraNqGPP_kelZlvkzCJ-18" target="MsraNqGPP_kelZlvkzCJ-24">
          <mxGeometry relative="1" as="geometry">
            <Array as="points" />
          </mxGeometry>
        </mxCell>
        <mxCell id="MsraNqGPP_kelZlvkzCJ-33" value="" style="edgeStyle=orthogonalEdgeStyle;rounded=0;orthogonalLoop=1;jettySize=auto;html=1;" edge="1" parent="WIyWlLk6GJQsqaUBKTNV-1" source="MsraNqGPP_kelZlvkzCJ-18" target="MsraNqGPP_kelZlvkzCJ-30">
          <mxGeometry relative="1" as="geometry">
            <Array as="points">
              <mxPoint x="575" y="120" />
              <mxPoint x="410" y="120" />
            </Array>
          </mxGeometry>
        </mxCell>
        <mxCell id="MsraNqGPP_kelZlvkzCJ-18" value="&lt;b&gt;update_weather_forecast.py&lt;/b&gt;&lt;div&gt;&lt;br&gt;&lt;div&gt;- loops through regions&lt;/div&gt;&lt;/div&gt;&lt;div&gt;&lt;br&gt;&lt;/div&gt;&lt;div&gt;&lt;b&gt;&lt;font style=&quot;color: rgb(255, 153, 153);&quot;&gt;deps&lt;/font&gt;&lt;/b&gt;&amp;nbsp;: pandas&lt;/div&gt;" style="rounded=1;whiteSpace=wrap;html=1;fontSize=12;glass=0;strokeWidth=1;shadow=0;fillColor=#2C80FF;" vertex="1" parent="WIyWlLk6GJQsqaUBKTNV-1">
          <mxGeometry x="480" y="150" width="190" height="100" as="geometry" />
        </mxCell>
        <mxCell id="MsraNqGPP_kelZlvkzCJ-19" value="&lt;div&gt;&lt;span style=&quot;background-color: transparent; color: light-dark(rgb(0, 0, 0), rgb(255, 255, 255));&quot;&gt;in get_temperature_forecast.py&lt;/span&gt;&lt;/div&gt;&lt;div&gt;&lt;br&gt;&lt;/div&gt;&lt;div&gt;&lt;br&gt;&lt;/div&gt;&lt;div&gt;&lt;br&gt;&lt;/div&gt;&lt;div&gt;&lt;br&gt;&lt;/div&gt;&lt;div&gt;&lt;br&gt;&lt;/div&gt;&lt;div&gt;&lt;br&gt;&lt;/div&gt;&lt;div&gt;&lt;br&gt;&lt;/div&gt;&lt;div&gt;&lt;br&gt;&lt;/div&gt;&lt;div&gt;&lt;br&gt;&lt;/div&gt;&lt;div&gt;&lt;font style=&quot;color: rgb(255, 153, 153);&quot;&gt;&lt;b&gt;deps&lt;/b&gt;&lt;/font&gt;&amp;nbsp;: pandas, openmeteo_requests, requests_cache, retry_requests&amp;nbsp;&lt;/div&gt;" style="rounded=1;whiteSpace=wrap;html=1;fontSize=12;glass=0;strokeWidth=1;shadow=0;fillColor=#2C80FF;" vertex="1" parent="WIyWlLk6GJQsqaUBKTNV-1">
          <mxGeometry x="470" y="310" width="240" height="200" as="geometry" />
        </mxCell>
        <mxCell id="MsraNqGPP_kelZlvkzCJ-20" value="" style="edgeStyle=orthogonalEdgeStyle;rounded=0;orthogonalLoop=1;jettySize=auto;html=1;" edge="1" parent="WIyWlLk6GJQsqaUBKTNV-1">
          <mxGeometry relative="1" as="geometry">
            <mxPoint x="575" y="250" as="sourcePoint" />
            <mxPoint x="575" y="300" as="targetPoint" />
          </mxGeometry>
        </mxCell>
        <mxCell id="MsraNqGPP_kelZlvkzCJ-21" value="calls" style="text;html=1;align=center;verticalAlign=middle;resizable=0;points=[];autosize=1;strokeColor=none;fillColor=none;" vertex="1" parent="WIyWlLk6GJQsqaUBKTNV-1">
          <mxGeometry x="580" y="260" width="50" height="30" as="geometry" />
        </mxCell>
        <mxCell id="MsraNqGPP_kelZlvkzCJ-23" value="uses" style="text;html=1;align=center;verticalAlign=middle;resizable=0;points=[];autosize=1;strokeColor=none;fillColor=none;" vertex="1" parent="WIyWlLk6GJQsqaUBKTNV-1">
          <mxGeometry x="510" y="90" width="50" height="30" as="geometry" />
        </mxCell>
        <mxCell id="MsraNqGPP_kelZlvkzCJ-24" value="all_temp_data.csv" style="shape=cylinder3;whiteSpace=wrap;html=1;boundedLbl=1;backgroundOutline=1;size=15;fillColor=#4C0099;" vertex="1" parent="WIyWlLk6GJQsqaUBKTNV-1">
          <mxGeometry x="770" y="170" width="120" height="80" as="geometry" />
        </mxCell>
        <mxCell id="MsraNqGPP_kelZlvkzCJ-25" value="writes to" style="text;html=1;align=center;verticalAlign=middle;resizable=0;points=[];autosize=1;strokeColor=none;fillColor=none;" vertex="1" parent="WIyWlLk6GJQsqaUBKTNV-1">
          <mxGeometry x="690" y="180" width="70" height="30" as="geometry" />
        </mxCell>
        <mxCell id="MsraNqGPP_kelZlvkzCJ-27" value="open-meteo API" style="ellipse;shape=cloud;whiteSpace=wrap;html=1;fillColor=#009900;" vertex="1" parent="WIyWlLk6GJQsqaUBKTNV-1">
          <mxGeometry x="770" y="305" width="210" height="110" as="geometry" />
        </mxCell>
        <mxCell id="MsraNqGPP_kelZlvkzCJ-28" value="calls" style="text;html=1;align=center;verticalAlign=middle;resizable=0;points=[];autosize=1;strokeColor=none;fillColor=none;" vertex="1" parent="WIyWlLk6GJQsqaUBKTNV-1">
          <mxGeometry x="710" y="320" width="50" height="30" as="geometry" />
        </mxCell>
        <mxCell id="MsraNqGPP_kelZlvkzCJ-30" value="&lt;div&gt;&lt;font color=&quot;#000000&quot;&gt;region_abbr_dict&lt;/font&gt;&lt;/div&gt;&lt;div&gt;&lt;font color=&quot;#000000&quot;&gt;&lt;br&gt;&lt;/font&gt;&lt;/div&gt;&lt;div&gt;&lt;font color=&quot;#000000&quot;&gt;in dictionaries.py&lt;/font&gt;&lt;/div&gt;" style="rounded=0;whiteSpace=wrap;html=1;dashed=1;fillColor=#FFFF00;" vertex="1" parent="WIyWlLk6GJQsqaUBKTNV-1">
          <mxGeometry x="340" y="30" width="140" height="60" as="geometry" />
        </mxCell>
        <mxCell id="MsraNqGPP_kelZlvkzCJ-37" value="" style="edgeStyle=orthogonalEdgeStyle;rounded=0;orthogonalLoop=1;jettySize=auto;html=1;entryX=0.5;entryY=0;entryDx=0;entryDy=0;" edge="1" parent="WIyWlLk6GJQsqaUBKTNV-1" source="MsraNqGPP_kelZlvkzCJ-34" target="MsraNqGPP_kelZlvkzCJ-43">
          <mxGeometry relative="1" as="geometry">
            <Array as="points">
              <mxPoint x="220" y="490" />
              <mxPoint x="295" y="490" />
            </Array>
          </mxGeometry>
        </mxCell>
        <mxCell id="MsraNqGPP_kelZlvkzCJ-52" value="" style="edgeStyle=orthogonalEdgeStyle;rounded=0;orthogonalLoop=1;jettySize=auto;html=1;entryX=0.96;entryY=0.7;entryDx=0;entryDy=0;entryPerimeter=0;" edge="1" parent="WIyWlLk6GJQsqaUBKTNV-1" source="MsraNqGPP_kelZlvkzCJ-34" target="MsraNqGPP_kelZlvkzCJ-9">
          <mxGeometry relative="1" as="geometry" />
        </mxCell>
        <mxCell id="MsraNqGPP_kelZlvkzCJ-34" value="&lt;b&gt;get_regional_consumption()&lt;/b&gt;&lt;div&gt;&lt;br&gt;&lt;div&gt;&lt;div&gt;- processes API data&lt;/div&gt;&lt;div&gt;&lt;br&gt;&lt;/div&gt;&lt;div&gt;- returns dataframe&lt;/div&gt;&lt;/div&gt;&lt;/div&gt;" style="rounded=1;whiteSpace=wrap;html=1;fillColor=#AFAFAF;" vertex="1" parent="WIyWlLk6GJQsqaUBKTNV-1">
          <mxGeometry x="210" y="342.5" width="170" height="85" as="geometry" />
        </mxCell>
        <mxCell id="MsraNqGPP_kelZlvkzCJ-42" value="" style="edgeStyle=orthogonalEdgeStyle;rounded=0;orthogonalLoop=1;jettySize=auto;html=1;" edge="1" parent="WIyWlLk6GJQsqaUBKTNV-1" source="MsraNqGPP_kelZlvkzCJ-38" target="MsraNqGPP_kelZlvkzCJ-27">
          <mxGeometry relative="1" as="geometry" />
        </mxCell>
        <mxCell id="MsraNqGPP_kelZlvkzCJ-48" value="" style="edgeStyle=orthogonalEdgeStyle;rounded=0;orthogonalLoop=1;jettySize=auto;html=1;" edge="1" parent="WIyWlLk6GJQsqaUBKTNV-1" source="MsraNqGPP_kelZlvkzCJ-38" target="MsraNqGPP_kelZlvkzCJ-27">
          <mxGeometry relative="1" as="geometry" />
        </mxCell>
        <mxCell id="MsraNqGPP_kelZlvkzCJ-49" value="" style="edgeStyle=orthogonalEdgeStyle;rounded=0;orthogonalLoop=1;jettySize=auto;html=1;" edge="1" parent="WIyWlLk6GJQsqaUBKTNV-1" source="MsraNqGPP_kelZlvkzCJ-38" target="MsraNqGPP_kelZlvkzCJ-27">
          <mxGeometry relative="1" as="geometry" />
        </mxCell>
        <mxCell id="MsraNqGPP_kelZlvkzCJ-50" style="edgeStyle=orthogonalEdgeStyle;rounded=0;orthogonalLoop=1;jettySize=auto;html=1;exitX=0.982;exitY=0.83;exitDx=0;exitDy=0;exitPerimeter=0;" edge="1" parent="WIyWlLk6GJQsqaUBKTNV-1" source="MsraNqGPP_kelZlvkzCJ-38">
          <mxGeometry relative="1" as="geometry">
            <mxPoint x="705" y="430" as="sourcePoint" />
            <mxPoint x="730" y="580" as="targetPoint" />
            <Array as="points">
              <mxPoint x="696" y="430" />
              <mxPoint x="730" y="430" />
            </Array>
          </mxGeometry>
        </mxCell>
        <mxCell id="MsraNqGPP_kelZlvkzCJ-38" value="&lt;div&gt;&lt;b&gt;regional_temperature_prediction()&lt;/b&gt;&lt;/div&gt;&lt;div&gt;&lt;b&gt;&lt;br&gt;&lt;/b&gt;&lt;/div&gt;&lt;div&gt;- processes API data&lt;/div&gt;&lt;div&gt;&lt;br&gt;&lt;/div&gt;&lt;div&gt;- returns dataframe&lt;/div&gt;" style="rounded=1;whiteSpace=wrap;html=1;fillColor=#AFAFAF;" vertex="1" parent="WIyWlLk6GJQsqaUBKTNV-1">
          <mxGeometry x="480" y="350" width="220" height="100" as="geometry" />
        </mxCell>
        <mxCell id="MsraNqGPP_kelZlvkzCJ-39" value="&lt;div&gt;&lt;font color=&quot;#000000&quot;&gt;weather_coordinates&lt;/font&gt;&lt;/div&gt;&lt;div&gt;&lt;font color=&quot;#000000&quot;&gt;&lt;br&gt;&lt;/font&gt;&lt;/div&gt;&lt;div&gt;&lt;font color=&quot;#000000&quot;&gt;in dictionaries.py&lt;/font&gt;&lt;/div&gt;" style="rounded=0;whiteSpace=wrap;html=1;dashed=1;fillColor=#FFFF00;" vertex="1" parent="WIyWlLk6GJQsqaUBKTNV-1">
          <mxGeometry x="650" y="580" width="140" height="60" as="geometry" />
        </mxCell>
        <mxCell id="MsraNqGPP_kelZlvkzCJ-41" value="uses" style="text;html=1;align=center;verticalAlign=middle;resizable=0;points=[];autosize=1;strokeColor=none;fillColor=none;" vertex="1" parent="WIyWlLk6GJQsqaUBKTNV-1">
          <mxGeometry x="730" y="520" width="50" height="30" as="geometry" />
        </mxCell>
        <mxCell id="MsraNqGPP_kelZlvkzCJ-43" value="&lt;div&gt;&lt;span style=&quot;background-color: transparent; color: light-dark(rgb(0, 0, 0), rgb(255, 255, 255));&quot;&gt;&lt;b&gt;utils.py&lt;/b&gt;&lt;/span&gt;&lt;/div&gt;&lt;div&gt;&lt;span style=&quot;background-color: transparent; color: light-dark(rgb(0, 0, 0), rgb(255, 255, 255));&quot;&gt;&lt;br&gt;&lt;/span&gt;&lt;/div&gt;&lt;div&gt;&lt;span style=&quot;background-color: transparent; color: light-dark(rgb(0, 0, 0), rgb(255, 255, 255));&quot;&gt;&lt;br&gt;&lt;/span&gt;&lt;/div&gt;&lt;div&gt;&lt;span style=&quot;background-color: transparent; color: light-dark(rgb(0, 0, 0), rgb(255, 255, 255));&quot;&gt;&lt;br&gt;&lt;/span&gt;&lt;/div&gt;&lt;div&gt;&lt;span style=&quot;background-color: transparent; color: light-dark(rgb(0, 0, 0), rgb(255, 255, 255));&quot;&gt;&lt;br&gt;&lt;/span&gt;&lt;/div&gt;&lt;div&gt;&lt;br&gt;&lt;/div&gt;&lt;div&gt;&lt;br&gt;&lt;/div&gt;&lt;div&gt;&lt;br&gt;&lt;/div&gt;&lt;div&gt;&lt;font style=&quot;color: rgb(255, 153, 153);&quot;&gt;&lt;b style=&quot;&quot;&gt;deps&lt;/b&gt;&lt;/font&gt; : pandas&lt;/div&gt;" style="rounded=1;whiteSpace=wrap;html=1;fontSize=12;glass=0;strokeWidth=1;shadow=0;fillColor=#2C80FF;" vertex="1" parent="WIyWlLk6GJQsqaUBKTNV-1">
          <mxGeometry x="200" y="520" width="190" height="150" as="geometry" />
        </mxCell>
        <mxCell id="MsraNqGPP_kelZlvkzCJ-44" value="&lt;b&gt;prepare_pipeline_inputs()&lt;/b&gt;&lt;div&gt;&lt;div&gt;&lt;div&gt;&lt;br&gt;&lt;/div&gt;&lt;div&gt;- returns API param string&lt;/div&gt;&lt;/div&gt;&lt;/div&gt;" style="rounded=1;whiteSpace=wrap;html=1;fillColor=#AFAFAF;" vertex="1" parent="WIyWlLk6GJQsqaUBKTNV-1">
          <mxGeometry x="210" y="552.5" width="170" height="85" as="geometry" />
        </mxCell>
        <mxCell id="MsraNqGPP_kelZlvkzCJ-53" value="calls" style="text;html=1;align=center;verticalAlign=middle;resizable=0;points=[];autosize=1;strokeColor=none;fillColor=none;" vertex="1" parent="WIyWlLk6GJQsqaUBKTNV-1">
          <mxGeometry x="160" y="470" width="50" height="30" as="geometry" />
        </mxCell>
        <mxCell id="MsraNqGPP_kelZlvkzCJ-54" value="&lt;b&gt;&lt;font style=&quot;color: rgb(255, 204, 204);&quot;&gt;Deps&lt;/font&gt;&lt;/b&gt; : pandas, requests, openmeteo_requests, requests_cache, retry_requests" style="rounded=0;whiteSpace=wrap;html=1;fillColor=#AFAFAF;dashed=1;strokeColor=#CC0000;strokeWidth=4;" vertex="1" parent="WIyWlLk6GJQsqaUBKTNV-1">
          <mxGeometry x="-20" y="-90" width="150" height="110" as="geometry" />
        </mxCell>
      </root>
    </mxGraphModel>
  </diagram>
</mxfile>
